<?xml version="1.0" encoding="UTF-8" standalone="no"?>
<!DOCTYPE svg PUBLIC "-//W3C//DTD SVG 1.1//EN"
 "http://www.w3.org/Graphics/SVG/1.1/DTD/svg11.dtd">
<!-- Generated by graphviz version 2.43.0 (0)
 -->
<!-- Title: Rtc Pages: 1 -->
<svg width="392pt" height="104pt"
 viewBox="0.00 0.00 391.50 104.00" xmlns="http://www.w3.org/2000/svg" xmlns:xlink="http://www.w3.org/1999/xlink">

<svg id="main" version="1.1" xmlns="http://www.w3.org/2000/svg" xmlns:xlink="http://www.w3.org/1999/xlink" xml:space="preserve" onload="init(evt)">
<style type="text/css"><![CDATA[
.node, .edge {opacity: 0.7;}
.node.selected, .edge.selected {opacity: 1;}
.edge:hover path { stroke: red; }
.edge:hover polygon { stroke: red; fill: red; }
]]></style>
<script type="application/ecmascript" xlink:href="svg.min.js"/>
<svg id="graph" class="graph">
<g id="graph0" class="graph" transform="scale(1 1) rotate(0) translate(4 100)">
<title>Rtc</title>
<!-- Node1 -->
<g id="Node000001" class="node">
<title>Node1</title>
<g id="a_Node000001"><a xlink:title="Structure representing RTC.">
<polygon fill="#999999" stroke="#666666" points="205.5,-19 173.5,-19 173.5,0 205.5,0 205.5,-19"/>
<text text-anchor="middle" x="189.5" y="-7" font-family="Helvetica,sans-Serif" font-size="10.00">Rtc</text>
</a>
</g>
</g>
<!-- Node2 -->
<g id="Node000002" class="node">
<title>Node2</title>
<g id="a_Node000002"><a xlink:href="structRtc__Registers.html" target="_top" xlink:title="Structure representing RTC registers.">
<polygon fill="white" stroke="#666666" points="83,-96 0,-96 0,-77 83,-77 83,-96"/>
<text text-anchor="middle" x="41.5" y="-84" font-family="Helvetica,sans-Serif" font-size="10.00">Rtc_Registers</text>
</a>
</g>
</g>
<!-- Node2&#45;&gt;Node1 -->
<g id="edge1_Node000001_Node000002" class="edge">
<title>Node2&#45;&gt;Node1</title>
<g id="a_edge1_Node000001_Node000002"><a xlink:title=" ">
<path fill="none" stroke="#9a32cd" stroke-dasharray="5,2" d="M52.61,-68.43C60.34,-57.87 71.56,-44.87 84.5,-37 112.77,-19.81 151.8,-13.73 173.43,-11.61"/>
<polygon fill="#9a32cd" stroke="#9a32cd" points="49.57,-66.67 46.76,-76.89 55.33,-70.66 49.57,-66.67"/>
</a>
</g>
<text text-anchor="middle" x="107.5" y="-45.5" font-family="Helvetica,sans-Serif" font-size="10.00" fill="grey"> registers</text>
</g>
<!-- Node3 -->
<g id="Node000003" class="node">
<title>Node3</title>
<g id="a_Node000003"><a xlink:href="structRtc__Handler.html" target="_top" xlink:title="Structure representing Rtc handler descriptor.">
<polygon fill="white" stroke="#666666" points="177.5,-96 101.5,-96 101.5,-77 177.5,-77 177.5,-96"/>
<text text-anchor="middle" x="139.5" y="-84" font-family="Helvetica,sans-Serif" font-size="10.00">Rtc_Handler</text>
</a>
</g>
</g>
<!-- Node3&#45;&gt;Node1 -->
<g id="edge2_Node000001_Node000003" class="edge">
<title>Node3&#45;&gt;Node1</title>
<g id="a_edge2_Node000001_Node000003"><a xlink:title=" ">
<path fill="none" stroke="#9a32cd" stroke-dasharray="5,2" d="M135.64,-66.8C134.67,-57.23 135.14,-45.78 140.5,-37 147.65,-25.28 161.95,-18.41 173.26,-14.61"/>
<polygon fill="#9a32cd" stroke="#9a32cd" points="132.22,-67.56 137.24,-76.9 139.13,-66.47 132.22,-67.56"/>
</a>
</g>
<text text-anchor="middle" x="179" y="-51" font-family="Helvetica,sans-Serif" font-size="10.00" fill="grey"> handlers</text>
<text text-anchor="middle" x="179" y="-40" font-family="Helvetica,sans-Serif" font-size="10.00" fill="grey">successHandler</text>
</g>
<!-- Node4 -->
<g id="Node000004" class="node">
<title>Node4</title>
<g id="a_Node000004"><a xlink:href="structRtc__Date.html" target="_top" xlink:title="Structure representing date.">
<polygon fill="white" stroke="#666666" points="270,-96 209,-96 209,-77 270,-77 270,-96"/>
<text text-anchor="middle" x="239.5" y="-84" font-family="Helvetica,sans-Serif" font-size="10.00">Rtc_Date</text>
</a>
</g>
</g>
<!-- Node4&#45;&gt;Node1 -->
<g id="edge3_Node000001_Node000004" class="edge">
<title>Node4&#45;&gt;Node1</title>
<g id="a_edge3_Node000001_Node000004"><a xlink:title=" ">
<path fill="none" stroke="#9a32cd" stroke-dasharray="5,2" d="M233.12,-67.11C229.36,-57.64 224.05,-46.19 217.5,-37 212.76,-30.35 206.18,-24.02 200.59,-19.22"/>
<polygon fill="#9a32cd" stroke="#9a32cd" points="229.92,-68.57 236.69,-76.73 236.49,-66.14 229.92,-68.57"/>
</a>
</g>
<text text-anchor="middle" x="262.5" y="-45.5" font-family="Helvetica,sans-Serif" font-size="10.00" fill="grey"> pendingDate</text>
</g>
<!-- Node5 -->
<g id="Node000005" class="node">
<title>Node5</title>
<g id="a_Node000005"><a xlink:href="structRtc__Time.html" target="_top" xlink:title="Structure representing time.">
<polygon fill="white" stroke="#666666" points="359.5,-96 297.5,-96 297.5,-77 359.5,-77 359.5,-96"/>
<text text-anchor="middle" x="328.5" y="-84" font-family="Helvetica,sans-Serif" font-size="10.00">Rtc_Time</text>
</a>
</g>
</g>
<!-- Node5&#45;&gt;Node1 -->
<g id="edge4_Node000001_Node000005" class="edge">
<title>Node5&#45;&gt;Node1</title>
<g id="a_edge4_Node000001_Node000005"><a xlink:title=" ">
<path fill="none" stroke="#9a32cd" stroke-dasharray="5,2" d="M321.86,-67.43C317.15,-57.04 309.81,-44.59 299.5,-37 271.17,-16.17 228.68,-11.51 205.68,-10.6"/>
<polygon fill="#9a32cd" stroke="#9a32cd" points="318.69,-68.94 325.71,-76.87 325.18,-66.29 318.69,-68.94"/>
</a>
</g>
<text text-anchor="middle" x="350" y="-45.5" font-family="Helvetica,sans-Serif" font-size="10.00" fill="grey"> pendingTime</text>
</g>
</g>
</svg>
</svg>

<style type='text/css'>
<![CDATA[
[data-mouse-over-selected='false'] { opacity: 0.7; }
[data-mouse-over-selected='true']  { opacity: 1.0; }
]]>
</style>
<script type="application/ecmascript"><![CDATA[
document.addEventListener('DOMContentLoaded', (event) => {
  highlightEdges();
  highlightAdjacentNodes();
});
]]></script>
</svg>
