<?xml version="1.0" encoding="UTF-8" standalone="no"?>
<!DOCTYPE svg PUBLIC "-//W3C//DTD SVG 1.1//EN"
 "http://www.w3.org/Graphics/SVG/1.1/DTD/svg11.dtd">
<!-- Generated by graphviz version 2.43.0 (0)
 -->
<!-- Title: Twihs Pages: 1 -->
<svg width="441pt" height="223pt"
 viewBox="0.00 0.00 441.00 223.00" xmlns="http://www.w3.org/2000/svg" xmlns:xlink="http://www.w3.org/1999/xlink">

<svg id="main" version="1.1" xmlns="http://www.w3.org/2000/svg" xmlns:xlink="http://www.w3.org/1999/xlink" xml:space="preserve" onload="init(evt)">
<style type="text/css"><![CDATA[
.node, .edge {opacity: 0.7;}
.node.selected, .edge.selected {opacity: 1;}
.edge:hover path { stroke: red; }
.edge:hover polygon { stroke: red; fill: red; }
]]></style>
<script type="application/ecmascript" xlink:href="svg.min.js"/>
<svg id="graph" class="graph">
<g id="graph0" class="graph" transform="scale(1 1) rotate(0) translate(4 219)">
<title>Twihs</title>
<!-- Node1 -->
<g id="Node000001" class="node">
<title>Node1</title>
<g id="a_Node000001"><a xlink:title="Twihs descriptor.">
<polygon fill="#999999" stroke="#666666" points="433,-126 389,-126 389,-107 433,-107 433,-126"/>
<text text-anchor="middle" x="411" y="-114" font-family="Helvetica,sans-Serif" font-size="10.00">Twihs</text>
</a>
</g>
</g>
<!-- Node2 -->
<g id="Node000002" class="node">
<title>Node2</title>
<g id="a_Node000002"><a xlink:href="structTwihs__TxHandler.html" target="_top" xlink:title="A descriptor of a byte transmission event handler.">
<polygon fill="white" stroke="#666666" points="282.5,-215 183.5,-215 183.5,-196 282.5,-196 282.5,-215"/>
<text text-anchor="middle" x="233" y="-203" font-family="Helvetica,sans-Serif" font-size="10.00">Twihs_TxHandler</text>
</a>
</g>
</g>
<!-- Node2&#45;&gt;Node1 -->
<g id="edge1_Node000001_Node000002" class="edge">
<title>Node2&#45;&gt;Node1</title>
<g id="a_edge1_Node000001_Node000002"><a xlink:title=" ">
<path fill="none" stroke="#9a32cd" stroke-dasharray="5,2" d="M292.64,-202.53C318.5,-198.85 348.13,-191.18 371,-175.5 389.02,-163.14 400.84,-139.44 406.36,-126.15"/>
<polygon fill="#9a32cd" stroke="#9a32cd" points="292.06,-199.07 282.57,-203.79 292.93,-206.02 292.06,-199.07"/>
</a>
</g>
<text text-anchor="middle" x="338.5" y="-202.5" font-family="Helvetica,sans-Serif" font-size="10.00" fill="grey"> txHandler</text>
</g>
<!-- Node3 -->
<g id="Node000003" class="node">
<title>Node3</title>
<g id="a_Node000003"><a xlink:href="structTwihs__RxHandler.html" target="_top" xlink:title="A descriptor of a byte reception event handler.">
<polygon fill="white" stroke="#666666" points="283,-178 183,-178 183,-159 283,-159 283,-178"/>
<text text-anchor="middle" x="233" y="-166" font-family="Helvetica,sans-Serif" font-size="10.00">Twihs_RxHandler</text>
</a>
</g>
</g>
<!-- Node3&#45;&gt;Node1 -->
<g id="edge2_Node000001_Node000003" class="edge">
<title>Node3&#45;&gt;Node1</title>
<g id="a_edge2_Node000001_Node000003"><a xlink:title=" ">
<path fill="none" stroke="#9a32cd" stroke-dasharray="5,2" d="M293.27,-163.26C317.98,-159.67 346.56,-153.63 371,-143.5 381.19,-139.27 391.4,-132.07 398.82,-126.17"/>
<polygon fill="#9a32cd" stroke="#9a32cd" points="292.74,-159.8 283.3,-164.61 293.68,-166.74 292.74,-159.8"/>
</a>
</g>
<text text-anchor="middle" x="338.5" y="-163.5" font-family="Helvetica,sans-Serif" font-size="10.00" fill="grey"> rxHandler</text>
</g>
<!-- Node4 -->
<g id="Node000004" class="node">
<title>Node4</title>
<g id="a_Node000004"><a xlink:href="structTwihs__ErrorHandler.html" target="_top" xlink:title="A descriptor of event handler.">
<polygon fill="white" stroke="#666666" points="288,-93 178,-93 178,-74 288,-74 288,-93"/>
<text text-anchor="middle" x="233" y="-81" font-family="Helvetica,sans-Serif" font-size="10.00">Twihs_ErrorHandler</text>
</a>
</g>
</g>
<!-- Node4&#45;&gt;Node1 -->
<g id="edge3_Node000001_Node000004" class="edge">
<title>Node4&#45;&gt;Node1</title>
<g id="a_edge3_Node000001_Node000004"><a xlink:title=" ">
<path fill="none" stroke="#9a32cd" stroke-dasharray="5,2" d="M298.07,-91.34C321.19,-94.69 347.4,-99.09 371,-104.5 376.8,-105.83 382.99,-107.58 388.7,-109.33"/>
<polygon fill="#9a32cd" stroke="#9a32cd" points="298.41,-87.86 288.02,-89.92 297.44,-94.79 298.41,-87.86"/>
</a>
</g>
<text text-anchor="middle" x="338.5" y="-107.5" font-family="Helvetica,sans-Serif" font-size="10.00" fill="grey"> errorHandler</text>
</g>
<!-- Node5 -->
<g id="Node000005" class="node">
<title>Node5</title>
<g id="a_Node000005"><a xlink:href="structTwihs__ErrorFlags.html" target="_top" xlink:title="Twihs transaction error flags structure.">
<polygon fill="white" stroke="#666666" points="98,-116 0,-116 0,-97 98,-97 98,-116"/>
<text text-anchor="middle" x="49" y="-104" font-family="Helvetica,sans-Serif" font-size="10.00">Twihs_ErrorFlags</text>
</a>
</g>
</g>
<!-- Node5&#45;&gt;Node1 -->
<g id="edge7_Node000001_Node000005" class="edge">
<title>Node5&#45;&gt;Node1</title>
<g id="a_edge7_Node000001_Node000005"><a xlink:title=" ">
<path fill="none" stroke="#9a32cd" stroke-dasharray="5,2" d="M108.33,-112.04C110.92,-112.21 113.49,-112.37 116,-112.5 218.2,-117.94 340.66,-117.31 388.95,-116.79"/>
<polygon fill="#9a32cd" stroke="#9a32cd" points="108.5,-108.54 98.27,-111.31 107.99,-115.52 108.5,-108.54"/>
</a>
</g>
<text text-anchor="middle" x="233" y="-119.5" font-family="Helvetica,sans-Serif" font-size="10.00" fill="grey"> errFlags</text>
</g>
<!-- Node5&#45;&gt;Node4 -->
<g id="edge4_Node000004_Node000005" class="edge">
<title>Node5&#45;&gt;Node4</title>
<g id="a_edge4_Node000004_Node000005"><a xlink:title=" ">
<path fill="none" stroke="#9a32cd" stroke-dasharray="5,2" d="M108.29,-99.13C130.55,-96.32 155.82,-93.13 177.69,-90.36"/>
<polygon fill="#9a32cd" stroke="#9a32cd" points="107.78,-95.67 98.29,-100.4 108.65,-102.62 107.78,-95.67"/>
</a>
</g>
<text text-anchor="middle" x="138" y="-100.5" font-family="Helvetica,sans-Serif" font-size="10.00" fill="grey"> callback</text>
</g>
<!-- Node6 -->
<g id="Node000006" class="node">
<title>Node6</title>
<g id="a_Node000006"><a xlink:href="structByteFifo.html" target="_top" xlink:title="Structure representing single queue instance.">
<polygon fill="white" stroke="#666666" points="261.5,-56 204.5,-56 204.5,-37 261.5,-37 261.5,-56"/>
<text text-anchor="middle" x="233" y="-44" font-family="Helvetica,sans-Serif" font-size="10.00">ByteFifo</text>
</a>
</g>
</g>
<!-- Node6&#45;&gt;Node1 -->
<g id="edge5_Node000001_Node000006" class="edge">
<title>Node6&#45;&gt;Node1</title>
<g id="a_edge5_Node000001_Node000006"><a xlink:title=" ">
<path fill="none" stroke="#9a32cd" stroke-dasharray="5,2" d="M271.84,-44.64C300.82,-44.88 340.83,-48.96 371,-66.5 387.37,-76.02 399.35,-95.32 405.45,-106.96"/>
<polygon fill="#9a32cd" stroke="#9a32cd" points="271.67,-41.14 261.69,-44.7 271.72,-48.14 271.67,-41.14"/>
</a>
</g>
<text text-anchor="middle" x="338.5" y="-80.5" font-family="Helvetica,sans-Serif" font-size="10.00" fill="grey"> rxFifo</text>
<text text-anchor="middle" x="338.5" y="-69.5" font-family="Helvetica,sans-Serif" font-size="10.00" fill="grey">txFifo</text>
</g>
<!-- Node7 -->
<g id="Node000007" class="node">
<title>Node7</title>
<g id="a_Node000007"><a xlink:href="structTwihs__Registers.html" target="_top" xlink:title="Structure representing Twihs registers.">
<polygon fill="white" stroke="#666666" points="280.5,-19 185.5,-19 185.5,0 280.5,0 280.5,-19"/>
<text text-anchor="middle" x="233" y="-7" font-family="Helvetica,sans-Serif" font-size="10.00">Twihs_Registers</text>
</a>
</g>
</g>
<!-- Node7&#45;&gt;Node1 -->
<g id="edge6_Node000001_Node000007" class="edge">
<title>Node7&#45;&gt;Node1</title>
<g id="a_edge6_Node000001_Node000007"><a xlink:title=" ">
<path fill="none" stroke="#9a32cd" stroke-dasharray="5,2" d="M290.53,-6.78C317.3,-8.24 348.3,-14.24 371,-31.5 395.82,-50.36 405.35,-88.74 408.56,-106.76"/>
<polygon fill="#9a32cd" stroke="#9a32cd" points="290.62,-3.28 280.5,-6.42 290.37,-10.27 290.62,-3.28"/>
</a>
</g>
<text text-anchor="middle" x="338.5" y="-34.5" font-family="Helvetica,sans-Serif" font-size="10.00" fill="grey"> reg</text>
</g>
</g>
</svg>
</svg>

<style type='text/css'>
<![CDATA[
[data-mouse-over-selected='false'] { opacity: 0.7; }
[data-mouse-over-selected='true']  { opacity: 1.0; }
]]>
</style>
<script type="application/ecmascript"><![CDATA[
document.addEventListener('DOMContentLoaded', (event) => {
  highlightEdges();
  highlightAdjacentNodes();
});
]]></script>
</svg>
