<?xml version="1.0" encoding="UTF-8" standalone="no"?>
<!DOCTYPE svg PUBLIC "-//W3C//DTD SVG 1.1//EN"
 "http://www.w3.org/Graphics/SVG/1.1/DTD/svg11.dtd">
<!-- Generated by graphviz version 2.43.0 (0)
 -->
<!-- Title: Fpu Pages: 1 -->
<svg width="263pt" height="93pt"
 viewBox="0.00 0.00 263.00 93.00" xmlns="http://www.w3.org/2000/svg" xmlns:xlink="http://www.w3.org/1999/xlink">
<g id="graph0" class="graph" transform="scale(1 1) rotate(0) translate(4 89)">
<title>Fpu</title>
<!-- Node1 -->
<g id="Node000001" class="node">
<title>Node1</title>
<g id="a_Node000001"><a xlink:title="Structure representing FPU.">
<polygon fill="#999999" stroke="#666666" points="127.5,-19 92.5,-19 92.5,0 127.5,0 127.5,-19"/>
<text text-anchor="middle" x="110" y="-7" font-family="Helvetica,sans-Serif" font-size="10.00">Fpu</text>
</a>
</g>
</g>
<!-- Node2 -->
<g id="Node000002" class="node">
<title>Node2</title>
<g id="a_Node000002"><a xlink:href="structFpu__Registers.html" target="_top" xlink:title="Structure representing FPU control and status registers.">
<polygon fill="white" stroke="#666666" points="86,-85 0,-85 0,-66 86,-66 86,-85"/>
<text text-anchor="middle" x="43" y="-73" font-family="Helvetica,sans-Serif" font-size="10.00">Fpu_Registers</text>
</a>
</g>
</g>
<!-- Node2&#45;&gt;Node1 -->
<g id="edge1_Node000001_Node000002" class="edge">
<title>Node2&#45;&gt;Node1</title>
<g id="a_edge1_Node000001_Node000002"><a xlink:title=" ">
<path fill="none" stroke="#9a32cd" stroke-dasharray="5,2" d="M59.4,-58.83C72.38,-46.44 90.02,-29.59 100.68,-19.41"/>
<polygon fill="#9a32cd" stroke="#9a32cd" points="56.85,-56.43 52.04,-65.87 61.68,-61.49 56.85,-56.43"/>
</a>
</g>
<text text-anchor="middle" x="104" y="-40" font-family="Helvetica,sans-Serif" font-size="10.00" fill="grey"> registers</text>
</g>
<!-- Node3 -->
<g id="Node000003" class="node">
<title>Node3</title>
<g id="a_Node000003"><a xlink:href="structFpu__CoprocessorRegisters.html" target="_top" xlink:title=" ">
<polygon fill="white" stroke="#bfbfbf" points="250,-85 104,-85 104,-66 250,-66 250,-85"/>
<text text-anchor="middle" x="177" y="-73" font-family="Helvetica,sans-Serif" font-size="10.00">Fpu_CoprocessorRegisters</text>
</a>
</g>
</g>
<!-- Node3&#45;&gt;Node1 -->
<g id="edge2_Node000001_Node000003" class="edge">
<title>Node3&#45;&gt;Node1</title>
<g id="a_edge2_Node000001_Node000003"><a xlink:title=" ">
<path fill="none" stroke="#9a32cd" stroke-dasharray="5,2" d="M160.6,-58.83C147.62,-46.44 129.98,-29.59 119.32,-19.41"/>
<polygon fill="#9a32cd" stroke="#9a32cd" points="158.32,-61.49 167.96,-65.87 163.15,-56.43 158.32,-61.49"/>
</a>
</g>
<text text-anchor="middle" x="201" y="-40" font-family="Helvetica,sans-Serif" font-size="10.00" fill="grey"> coprocessorRegisters</text>
</g>
</g>
</svg>
