<?xml version="1.0" encoding="UTF-8" standalone="no"?>
<!DOCTYPE svg PUBLIC "-//W3C//DTD SVG 1.1//EN"
 "http://www.w3.org/Graphics/SVG/1.1/DTD/svg11.dtd">
<!-- Generated by graphviz version 2.43.0 (0)
 -->
<!-- Title: Hefc Pages: 1 -->
<svg width="464pt" height="93pt"
 viewBox="0.00 0.00 463.50 93.00" xmlns="http://www.w3.org/2000/svg" xmlns:xlink="http://www.w3.org/1999/xlink">
<g id="graph0" class="graph" transform="scale(1 1) rotate(0) translate(4 89)">
<title>Hefc</title>
<!-- Node1 -->
<g id="Node000001" class="node">
<title>Node1</title>
<g id="a_Node000001"><a xlink:title="Structure representing Hefc driver.">
<polygon fill="#999999" stroke="#666666" points="228.5,-19 189.5,-19 189.5,0 228.5,0 228.5,-19"/>
<text text-anchor="middle" x="209" y="-7" font-family="Helvetica,sans-Serif" font-size="10.00">Hefc</text>
</a>
</g>
</g>
<!-- Node2 -->
<g id="Node000002" class="node">
<title>Node2</title>
<g id="a_Node000002"><a xlink:href="structHefc__Registers.html" target="_top" xlink:title="Structure representing registers of the Hardened Embedded Flash Controller (HEFC).">
<polygon fill="white" stroke="#666666" points="90,-85 0,-85 0,-66 90,-66 90,-85"/>
<text text-anchor="middle" x="45" y="-73" font-family="Helvetica,sans-Serif" font-size="10.00">Hefc_Registers</text>
</a>
</g>
</g>
<!-- Node2&#45;&gt;Node1 -->
<g id="edge1_Node000001_Node000002" class="edge">
<title>Node2&#45;&gt;Node1</title>
<g id="a_edge1_Node000001_Node000002"><a xlink:title=" ">
<path fill="none" stroke="#9a32cd" stroke-dasharray="5,2" d="M76.83,-62.08C110.15,-49.08 161.4,-29.08 189.28,-18.2"/>
<polygon fill="#9a32cd" stroke="#9a32cd" points="75.16,-58.97 67.12,-65.87 77.71,-65.49 75.16,-58.97"/>
</a>
</g>
<text text-anchor="middle" x="149.5" y="-40" font-family="Helvetica,sans-Serif" font-size="10.00" fill="grey"> regs</text>
</g>
<!-- Node3 -->
<g id="Node000003" class="node">
<title>Node3</title>
<g id="a_Node000003"><a xlink:href="structHefc__FlashInfo.html" target="_top" xlink:title="Structure representing basic flash information.">
<polygon fill="white" stroke="#666666" points="197.5,-85 108.5,-85 108.5,-66 197.5,-66 197.5,-85"/>
<text text-anchor="middle" x="153" y="-73" font-family="Helvetica,sans-Serif" font-size="10.00">Hefc_FlashInfo</text>
</a>
</g>
</g>
<!-- Node3&#45;&gt;Node1 -->
<g id="edge2_Node000001_Node000003" class="edge">
<title>Node3&#45;&gt;Node1</title>
<g id="a_edge2_Node000001_Node000003"><a xlink:title=" ">
<path fill="none" stroke="#9a32cd" stroke-dasharray="5,2" d="M167.33,-58.12C178.11,-45.81 192.47,-29.39 201.21,-19.41"/>
<polygon fill="#9a32cd" stroke="#9a32cd" points="164.5,-56.04 160.55,-65.87 169.77,-60.65 164.5,-56.04"/>
</a>
</g>
<text text-anchor="middle" x="196" y="-40" font-family="Helvetica,sans-Serif" font-size="10.00" fill="grey"> info</text>
</g>
<!-- Node4 -->
<g id="Node000004" class="node">
<title>Node4</title>
<g id="a_Node000004"><a xlink:href="structHefc__FlashConfig.html" target="_top" xlink:title="Structure representing flash configuration.">
<polygon fill="white" stroke="#666666" points="316.5,-85 215.5,-85 215.5,-66 316.5,-66 316.5,-85"/>
<text text-anchor="middle" x="266" y="-73" font-family="Helvetica,sans-Serif" font-size="10.00">Hefc_FlashConfig</text>
</a>
</g>
</g>
<!-- Node4&#45;&gt;Node1 -->
<g id="edge3_Node000001_Node000004" class="edge">
<title>Node4&#45;&gt;Node1</title>
<g id="a_edge3_Node000001_Node000004"><a xlink:title=" ">
<path fill="none" stroke="#9a32cd" stroke-dasharray="5,2" d="M251.41,-58.12C240.44,-45.81 225.83,-29.39 216.93,-19.41"/>
<polygon fill="#9a32cd" stroke="#9a32cd" points="249.05,-60.73 258.31,-65.87 254.28,-56.07 249.05,-60.73"/>
</a>
</g>
<text text-anchor="middle" x="257.5" y="-40" font-family="Helvetica,sans-Serif" font-size="10.00" fill="grey"> config</text>
</g>
<!-- Node5 -->
<g id="Node000005" class="node">
<title>Node5</title>
<g id="a_Node000005"><a xlink:href="structHefc__FlashDescriptor.html" target="_top" xlink:title="Structure representing flash descriptor.">
<polygon fill="white" stroke="#666666" points="455.5,-85 334.5,-85 334.5,-66 455.5,-66 455.5,-85"/>
<text text-anchor="middle" x="395" y="-73" font-family="Helvetica,sans-Serif" font-size="10.00">Hefc_FlashDescriptor</text>
</a>
</g>
</g>
<!-- Node5&#45;&gt;Node1 -->
<g id="edge4_Node000001_Node000005" class="edge">
<title>Node5&#45;&gt;Node1</title>
<g id="a_edge4_Node000001_Node000005"><a xlink:title=" ">
<path fill="none" stroke="#9a32cd" stroke-dasharray="5,2" d="M360.08,-62.48C321.21,-49.11 259.8,-27.98 228.59,-17.24"/>
<polygon fill="#9a32cd" stroke="#9a32cd" points="359.32,-65.92 369.92,-65.87 361.6,-59.31 359.32,-65.92"/>
</a>
</g>
<text text-anchor="middle" x="351.5" y="-40" font-family="Helvetica,sans-Serif" font-size="10.00" fill="grey"> flashDescriptor</text>
</g>
</g>
</svg>
