<?xml version="1.0" encoding="UTF-8" standalone="no"?>
<!DOCTYPE svg PUBLIC "-//W3C//DTD SVG 1.1//EN"
 "http://www.w3.org/Graphics/SVG/1.1/DTD/svg11.dtd">
<!-- Generated by graphviz version 2.43.0 (0)
 -->
<!-- Title: /home/kgrochowski/dev/arm/bsp/resources/n7&#45;core/lib/n7s/utils/Utils.h Pages: 1 -->
<!--zoomable 159 -->

<svg id="main" version="1.1" xmlns="http://www.w3.org/2000/svg" xmlns:xlink="http://www.w3.org/1999/xlink" xml:space="preserve" onload="init(evt)">
<style type="text/css"><![CDATA[
.node, .edge {opacity: 0.7;}
.node.selected, .edge.selected {opacity: 1;}
.edge:hover path { stroke: red; }
.edge:hover polygon { stroke: red; fill: red; }
]]></style>

<defs>
  <circle id="rim" cx="0" cy="0" r="7"/>
  <circle id="rim2" cx="0" cy="0" r="3.5"/>
  <g id="zoomPlus">
    <use xlink:href="#rim" fill="#404040"><set attributeName="fill" to="#808080" begin="zoomplus.mouseover" end="zoomplus.mouseout"/></use>
    <path d="M-4,0h8M0,-4v8" fill="none" stroke="white" stroke-width="1.5" pointer-events="none"/>
  </g>
  <g id="zoomMin">
    <use xlink:href="#rim" fill="#404040"><set attributeName="fill" to="#808080" begin="zoomminus.mouseover" end="zoomminus.mouseout"/></use>
    <path d="M-4,0h8" fill="none" stroke="white" stroke-width="1.5" pointer-events="none"/>
  </g>
  <g id="arrowUp" transform="translate(30 24)">
    <use xlink:href="#rim"/>
    <path pointer-events="none" fill="none" stroke="white" stroke-width="1.5" d="M0,-3.0v7 M-2.5,-0.5L0,-3.0L2.5,-0.5"/>
  </g>
  <g id="arrowRight" transform="rotate(90) translate(36 -43)">
    <use xlink:href="#rim"/>
    <path pointer-events="none" fill="none" stroke="white" stroke-width="1.5" d="M0,-3.0v7 M-2.5,-0.5L0,-3.0L2.5,-0.5"/>
  </g>
  <g id="arrowDown" transform="rotate(180) translate(-30 -48)">
    <use xlink:href="#rim"/>
    <path pointer-events="none" fill="none" stroke="white" stroke-width="1.5" d="M0,-3.0v7 M-2.5,-0.5L0,-3.0L2.5,-0.5"/>
  </g>
  <g id="arrowLeft" transform="rotate(270) translate(-36 17)">
    <use xlink:href="#rim"/>
    <path pointer-events="none" fill="none" stroke="white" stroke-width="1.5" d="M0,-3.0v7 M-2.5,-0.5L0,-3.0L2.5,-0.5"/>
  </g>
  <g id="resetDef">
    <use xlink:href="#rim2" fill="#404040"><set attributeName="fill" to="#808080" begin="reset.mouseover" end="reset.mouseout"/></use>
  </g>
</defs>
<script type="application/ecmascript">
var viewWidth = 1960;
var viewHeight = 159;
var sectionId = 'dynsection-1';
</script>
<script type="application/ecmascript" xlink:href="svg.min.js"/>
<svg id="graph" class="graph">
<g id="viewport">
<title>/home/kgrochowski/dev/arm/bsp/resources/n7&#45;core/lib/n7s/utils/Utils.h</title>
<!-- Node1 -->
<g id="Node000001" class="node">
<title>Node1</title>
<g id="a_Node000001"><a xlink:title=" ">
<polygon fill="#999999" stroke="#666666" points="909,-151 774,-151 774,-110 909,-110 909,-151"/>
<text text-anchor="start" x="782" y="-139" font-family="Helvetica,sans-Serif" font-size="10.00">/home/kgrochowski/dev</text>
<text text-anchor="start" x="782" y="-128" font-family="Helvetica,sans-Serif" font-size="10.00">/arm/bsp/resources/n7</text>
<text text-anchor="middle" x="841.5" y="-117" font-family="Helvetica,sans-Serif" font-size="10.00">&#45;core/lib/n7s/utils/Utils.h</text>
</a>
</g>
</g>
<!-- Node2 -->
<g id="Node000002" class="node">
<title>Node2</title>
<g id="a_Node000002"><a xlink:href="Fpu_8h.html" target="_top" xlink:title=" ">
<polygon fill="white" stroke="#666666" points="105,-74 0,-74 0,-55 105,-55 105,-74"/>
<text text-anchor="middle" x="52.5" y="-62" font-family="Helvetica,sans-Serif" font-size="10.00">n7s/bsp/Fpu/Fpu.h</text>
</a>
</g>
</g>
<!-- Node1&#45;&gt;Node2 -->
<g id="edge1_Node000001_Node000002" class="edge">
<title>Node1&#45;&gt;Node2</title>
<g id="a_edge1_Node000001_Node000002"><a xlink:title=" ">
<path fill="none" stroke="#63b8ff" d="M763.66,-124.78C631.2,-116.47 353.54,-97.83 119.5,-74 114.83,-73.52 109.99,-72.99 105.14,-72.43"/>
<polygon fill="#63b8ff" stroke="#63b8ff" points="763.51,-128.28 773.71,-125.41 763.95,-121.29 763.51,-128.28"/>
</a>
</g>
</g>
<!-- Node3 -->
<g id="Node000003" class="node">
<title>Node3</title>
<g id="a_Node000003"><a xlink:href="Hecc_8h.html" target="_top" xlink:title=" ">
<polygon fill="white" stroke="#666666" points="204.5,-19 82.5,-19 82.5,0 204.5,0 204.5,-19"/>
<text text-anchor="middle" x="143.5" y="-7" font-family="Helvetica,sans-Serif" font-size="10.00">n7s/bsp/Hemc/Hecc.h</text>
</a>
</g>
</g>
<!-- Node1&#45;&gt;Node3 -->
<g id="edge2_Node000001_Node000003" class="edge">
<title>Node1&#45;&gt;Node3</title>
<g id="a_edge2_Node000001_Node000003"><a xlink:title=" ">
<path fill="none" stroke="#63b8ff" d="M763.7,-128.61C592.78,-125.89 196.23,-115.16 152.5,-74 137.58,-59.96 139.46,-33.3 141.7,-19.41"/>
<polygon fill="#63b8ff" stroke="#63b8ff" points="763.83,-132.11 773.89,-128.76 763.94,-125.11 763.83,-132.11"/>
</a>
</g>
</g>
<!-- Node4 -->
<g id="Node000004" class="node">
<title>Node4</title>
<g id="a_Node000004"><a xlink:href="Hemc_8h.html" target="_top" xlink:title=" ">
<polygon fill="white" stroke="#666666" points="287.5,-74 161.5,-74 161.5,-55 287.5,-55 287.5,-74"/>
<text text-anchor="middle" x="224.5" y="-62" font-family="Helvetica,sans-Serif" font-size="10.00">n7s/bsp/Hemc/Hemc.h</text>
</a>
</g>
</g>
<!-- Node1&#45;&gt;Node4 -->
<g id="edge3_Node000001_Node000004" class="edge">
<title>Node1&#45;&gt;Node4</title>
<g id="a_edge3_Node000001_Node000004"><a xlink:title=" ">
<path fill="none" stroke="#63b8ff" d="M763.52,-121.67C658.52,-111.09 465.88,-91.52 301.5,-74 296.95,-73.52 292.26,-73.01 287.53,-72.5"/>
<polygon fill="#63b8ff" stroke="#63b8ff" points="763.41,-125.18 773.71,-122.7 764.11,-118.21 763.41,-125.18"/>
</a>
</g>
</g>
<!-- Node5 -->
<g id="Node000005" class="node">
<title>Node5</title>
<g id="a_Node000005"><a xlink:href="Hsmc_8h.html" target="_top" xlink:title=" ">
<polygon fill="white" stroke="#666666" points="358,-19 233,-19 233,0 358,0 358,-19"/>
<text text-anchor="middle" x="295.5" y="-7" font-family="Helvetica,sans-Serif" font-size="10.00">n7s/bsp/Hsmc/Hsmc.h</text>
</a>
</g>
</g>
<!-- Node1&#45;&gt;Node5 -->
<g id="edge6_Node000001_Node000005" class="edge">
<title>Node1&#45;&gt;Node5</title>
<g id="a_edge6_Node000001_Node000005"><a xlink:title=" ">
<path fill="none" stroke="#63b8ff" d="M763.67,-129.2C639.62,-127.37 403.99,-118 334.5,-74 314.17,-61.13 302.79,-33.44 298.09,-19.26"/>
<polygon fill="#63b8ff" stroke="#63b8ff" points="763.81,-132.7 773.86,-129.33 763.91,-125.7 763.81,-132.7"/>
</a>
</g>
</g>
<!-- Node6 -->
<g id="Node000006" class="node">
<title>Node6</title>
<g id="a_Node000006"><a xlink:href="Pwm_8h.html" target="_top" xlink:title=" ">
<polygon fill="white" stroke="#666666" points="461,-74 344,-74 344,-55 461,-55 461,-74"/>
<text text-anchor="middle" x="402.5" y="-62" font-family="Helvetica,sans-Serif" font-size="10.00">n7s/bsp/Pwm/Pwm.h</text>
</a>
</g>
</g>
<!-- Node1&#45;&gt;Node6 -->
<g id="edge7_Node000001_Node000006" class="edge">
<title>Node1&#45;&gt;Node6</title>
<g id="a_edge7_Node000001_Node000006"><a xlink:title=" ">
<path fill="none" stroke="#63b8ff" d="M763.83,-118.18C677.21,-105.55 539.06,-85.41 461.07,-74.04"/>
<polygon fill="#63b8ff" stroke="#63b8ff" points="763.47,-121.66 773.87,-119.64 764.48,-114.73 763.47,-121.66"/>
</a>
</g>
</g>
<!-- Node7 -->
<g id="Node000007" class="node">
<title>Node7</title>
<g id="a_Node000007"><a xlink:href="Group_8h.html" target="_top" xlink:title=" ">
<polygon fill="white" stroke="#666666" points="598,-74 479,-74 479,-55 598,-55 598,-74"/>
<text text-anchor="middle" x="538.5" y="-62" font-family="Helvetica,sans-Serif" font-size="10.00">n7s/bsp/Spw/Group.h</text>
</a>
</g>
</g>
<!-- Node1&#45;&gt;Node7 -->
<g id="edge8_Node000001_Node000007" class="edge">
<title>Node1&#45;&gt;Node7</title>
<g id="a_edge8_Node000001_Node000007"><a xlink:title=" ">
<path fill="none" stroke="#63b8ff" d="M763.84,-113.1C704.83,-100.63 626.02,-83.99 578.95,-74.04"/>
<polygon fill="#63b8ff" stroke="#63b8ff" points="763.37,-116.57 773.88,-115.22 764.82,-109.73 763.37,-116.57"/>
</a>
</g>
</g>
<!-- Node8 -->
<g id="Node000008" class="node">
<title>Node8</title>
<g id="a_Node000008"><a xlink:href="Spw_8h.html" target="_top" xlink:title=" ">
<polygon fill="white" stroke="#666666" points="965,-19 856,-19 856,0 965,0 965,-19"/>
<text text-anchor="middle" x="910.5" y="-7" font-family="Helvetica,sans-Serif" font-size="10.00">n7s/bsp/Spw/Spw.h</text>
</a>
</g>
</g>
<!-- Node1&#45;&gt;Node8 -->
<g id="edge18_Node000001_Node000008" class="edge">
<title>Node1&#45;&gt;Node8</title>
<g id="a_edge18_Node000001_Node000008"><a xlink:title=" ">
<path fill="none" stroke="#63b8ff" d="M763.78,-124.7C693.98,-117.48 607.85,-99.5 645.5,-55 671.9,-23.79 786.35,-14.46 855.92,-11.67"/>
<polygon fill="#63b8ff" stroke="#63b8ff" points="763.65,-128.21 773.94,-125.69 764.33,-121.24 763.65,-128.21"/>
</a>
</g>
</g>
<!-- Node9 -->
<g id="Node000009" class="node">
<title>Node9</title>
<g id="a_Node000009"><a xlink:href="Link_8h.html" target="_top" xlink:title=" ">
<polygon fill="white" stroke="#666666" points="764.5,-74 654.5,-74 654.5,-55 764.5,-55 764.5,-74"/>
<text text-anchor="middle" x="709.5" y="-62" font-family="Helvetica,sans-Serif" font-size="10.00">n7s/bsp/Spw/Link.h</text>
</a>
</g>
</g>
<!-- Node1&#45;&gt;Node9 -->
<g id="edge10_Node000001_Node000009" class="edge">
<title>Node1&#45;&gt;Node9</title>
<g id="a_edge10_Node000001_Node000009"><a xlink:title=" ">
<path fill="none" stroke="#63b8ff" d="M791.98,-105.49C769.27,-94.48 743.77,-82.12 727.22,-74.09"/>
<polygon fill="#63b8ff" stroke="#63b8ff" points="790.65,-108.74 801.18,-109.95 793.71,-102.44 790.65,-108.74"/>
</a>
</g>
</g>
<!-- Node10 -->
<g id="Node000010" class="node">
<title>Node10</title>
<g id="a_Node000010"><a xlink:href="Rmap_8h.html" target="_top" xlink:title=" ">
<polygon fill="white" stroke="#666666" points="900.5,-74 782.5,-74 782.5,-55 900.5,-55 900.5,-74"/>
<text text-anchor="middle" x="841.5" y="-62" font-family="Helvetica,sans-Serif" font-size="10.00">n7s/bsp/Spw/Rmap.h</text>
</a>
</g>
</g>
<!-- Node1&#45;&gt;Node10 -->
<g id="edge12_Node000001_Node000010" class="edge">
<title>Node1&#45;&gt;Node10</title>
<g id="a_edge12_Node000001_Node000010"><a xlink:title=" ">
<path fill="none" stroke="#63b8ff" d="M841.5,-99.74C841.5,-90.45 841.5,-80.9 841.5,-74.26"/>
<polygon fill="#63b8ff" stroke="#63b8ff" points="838,-99.95 841.5,-109.95 845,-99.95 838,-99.95"/>
</a>
</g>
</g>
<!-- Node11 -->
<g id="Node000011" class="node">
<title>Node11</title>
<g id="a_Node000011"><a xlink:href="Router_8h.html" target="_top" xlink:title=" ">
<polygon fill="white" stroke="#666666" points="1040,-74 919,-74 919,-55 1040,-55 1040,-74"/>
<text text-anchor="middle" x="979.5" y="-62" font-family="Helvetica,sans-Serif" font-size="10.00">n7s/bsp/Spw/Router.h</text>
</a>
</g>
</g>
<!-- Node1&#45;&gt;Node11 -->
<g id="edge14_Node000001_Node000011" class="edge">
<title>Node1&#45;&gt;Node11</title>
<g id="a_edge14_Node000001_Node000011"><a xlink:title=" ">
<path fill="none" stroke="#63b8ff" d="M892.95,-105.64C916.78,-94.59 943.59,-82.15 960.97,-74.09"/>
<polygon fill="#63b8ff" stroke="#63b8ff" points="891.25,-102.57 883.65,-109.95 894.2,-108.92 891.25,-102.57"/>
</a>
</g>
</g>
<!-- Node12 -->
<g id="Node000012" class="node">
<title>Node12</title>
<g id="a_Node000012"><a xlink:href="Rx_8h.html" target="_top" xlink:title=" ">
<polygon fill="white" stroke="#666666" points="1160.5,-74 1058.5,-74 1058.5,-55 1160.5,-55 1160.5,-74"/>
<text text-anchor="middle" x="1109.5" y="-62" font-family="Helvetica,sans-Serif" font-size="10.00">n7s/bsp/Spw/Rx.h</text>
</a>
</g>
</g>
<!-- Node1&#45;&gt;Node12 -->
<g id="edge16_Node000001_Node000012" class="edge">
<title>Node1&#45;&gt;Node12</title>
<g id="a_edge16_Node000001_Node000012"><a xlink:title=" ">
<path fill="none" stroke="#63b8ff" d="M919.13,-110.96C970.06,-98.8 1034.28,-83.46 1073.59,-74.08"/>
<polygon fill="#63b8ff" stroke="#63b8ff" points="918.04,-107.62 909.13,-113.35 919.67,-114.43 918.04,-107.62"/>
</a>
</g>
</g>
<!-- Node13 -->
<g id="Node000013" class="node">
<title>Node13</title>
<g id="a_Node000013"><a xlink:href="Tch_8h.html" target="_top" xlink:title=" ">
<polygon fill="white" stroke="#666666" points="1284,-74 1179,-74 1179,-55 1284,-55 1284,-74"/>
<text text-anchor="middle" x="1231.5" y="-62" font-family="Helvetica,sans-Serif" font-size="10.00">n7s/bsp/Spw/Tch.h</text>
</a>
</g>
</g>
<!-- Node1&#45;&gt;Node13 -->
<g id="edge19_Node000001_Node000013" class="edge">
<title>Node1&#45;&gt;Node13</title>
<g id="a_edge19_Node000001_Node000013"><a xlink:title=" ">
<path fill="none" stroke="#63b8ff" d="M919.6,-116.68C996.89,-104 1113.01,-84.94 1179.6,-74.02"/>
<polygon fill="#63b8ff" stroke="#63b8ff" points="918.73,-113.28 909.43,-118.35 919.87,-120.19 918.73,-113.28"/>
</a>
</g>
</g>
<!-- Node14 -->
<g id="Node000014" class="node">
<title>Node14</title>
<g id="a_Node000014"><a xlink:href="Tx_8h.html" target="_top" xlink:title=" ">
<polygon fill="white" stroke="#666666" points="1403,-74 1302,-74 1302,-55 1403,-55 1403,-74"/>
<text text-anchor="middle" x="1352.5" y="-62" font-family="Helvetica,sans-Serif" font-size="10.00">n7s/bsp/Spw/Tx.h</text>
</a>
</g>
</g>
<!-- Node1&#45;&gt;Node14 -->
<g id="edge21_Node000001_Node000014" class="edge">
<title>Node1&#45;&gt;Node14</title>
<g id="a_edge21_Node000001_Node000014"><a xlink:title=" ">
<path fill="none" stroke="#63b8ff" d="M919.46,-120.43C1009.6,-109.82 1162.39,-91.49 1293.5,-74 1296.27,-73.63 1299.11,-73.24 1301.98,-72.85"/>
<polygon fill="#63b8ff" stroke="#63b8ff" points="918.85,-116.98 909.33,-121.62 919.67,-123.93 918.85,-116.98"/>
</a>
</g>
</g>
<!-- Node15 -->
<g id="Node000015" class="node">
<title>Node15</title>
<g id="a_Node000015"><a xlink:href="Supc_8h.html" target="_top" xlink:title=" ">
<polygon fill="white" stroke="#666666" points="1537.5,-74 1421.5,-74 1421.5,-55 1537.5,-55 1537.5,-74"/>
<text text-anchor="middle" x="1479.5" y="-62" font-family="Helvetica,sans-Serif" font-size="10.00">n7s/bsp/Supc/Supc.h</text>
</a>
</g>
</g>
<!-- Node1&#45;&gt;Node15 -->
<g id="edge23_Node000001_Node000015" class="edge">
<title>Node1&#45;&gt;Node15</title>
<g id="a_edge23_Node000001_Node000015"><a xlink:title=" ">
<path fill="none" stroke="#63b8ff" d="M919.26,-122.67C1029.21,-112.85 1236.37,-93.73 1412.5,-74 1415.41,-73.67 1418.4,-73.33 1421.41,-72.98"/>
<polygon fill="#63b8ff" stroke="#63b8ff" points="918.9,-119.19 909.25,-123.56 919.52,-126.16 918.9,-119.19"/>
</a>
</g>
</g>
<!-- Node16 -->
<g id="Node000016" class="node">
<title>Node16</title>
<g id="a_Node000016"><a xlink:href="Systick_8h.html" target="_top" xlink:title=" ">
<polygon fill="white" stroke="#666666" points="1695.5,-74 1555.5,-74 1555.5,-55 1695.5,-55 1695.5,-74"/>
<text text-anchor="middle" x="1625.5" y="-62" font-family="Helvetica,sans-Serif" font-size="10.00">n7s/bsp/Systick/Systick.h</text>
</a>
</g>
</g>
<!-- Node1&#45;&gt;Node16 -->
<g id="edge24_Node000001_Node000016" class="edge">
<title>Node1&#45;&gt;Node16</title>
<g id="a_edge24_Node000001_Node000016"><a xlink:title=" ">
<path fill="none" stroke="#63b8ff" d="M919.37,-124.1C1049.39,-114.92 1318.87,-95.2 1546.5,-74 1549.38,-73.73 1552.33,-73.45 1555.3,-73.16"/>
<polygon fill="#63b8ff" stroke="#63b8ff" points="918.85,-120.63 909.12,-124.82 919.34,-127.61 918.85,-120.63"/>
</a>
</g>
</g>
<!-- Node17 -->
<g id="Node000017" class="node">
<title>Node17</title>
<g id="a_Node000017"><a xlink:href="Uart_8h.html" target="_top" xlink:title=" ">
<polygon fill="white" stroke="#666666" points="1825,-74 1714,-74 1714,-55 1825,-55 1825,-74"/>
<text text-anchor="middle" x="1769.5" y="-62" font-family="Helvetica,sans-Serif" font-size="10.00">n7s/bsp/Uart/Uart.h</text>
</a>
</g>
</g>
<!-- Node1&#45;&gt;Node17 -->
<g id="edge25_Node000001_Node000017" class="edge">
<title>Node1&#45;&gt;Node17</title>
<g id="a_edge25_Node000001_Node000017"><a xlink:title=" ">
<path fill="none" stroke="#63b8ff" d="M919.16,-126.22C1070.51,-119.45 1415.46,-102.16 1704.5,-74 1707.56,-73.7 1710.69,-73.37 1713.86,-73.02"/>
<polygon fill="#63b8ff" stroke="#63b8ff" points="918.87,-122.73 909.04,-126.67 919.18,-129.72 918.87,-122.73"/>
</a>
</g>
</g>
<!-- Node18 -->
<g id="Node000018" class="node">
<title>Node18</title>
<g id="a_Node000018"><a xlink:href="Wdt_8h.html" target="_top" xlink:title=" ">
<polygon fill="white" stroke="#666666" points="1951.5,-74 1843.5,-74 1843.5,-55 1951.5,-55 1951.5,-74"/>
<text text-anchor="middle" x="1897.5" y="-62" font-family="Helvetica,sans-Serif" font-size="10.00">n7s/bsp/Wdt/Wdt.h</text>
</a>
</g>
</g>
<!-- Node1&#45;&gt;Node18 -->
<g id="edge26_Node000001_Node000018" class="edge">
<title>Node1&#45;&gt;Node18</title>
<g id="a_edge26_Node000001_Node000018"><a xlink:title=" ">
<path fill="none" stroke="#63b8ff" d="M919.27,-127.23C1086.85,-121.87 1494.41,-106.4 1834.5,-74 1837.36,-73.73 1840.28,-73.42 1843.23,-73.1"/>
<polygon fill="#63b8ff" stroke="#63b8ff" points="918.95,-123.73 909.06,-127.55 919.17,-130.73 918.95,-123.73"/>
</a>
</g>
</g>
<!-- Node4&#45;&gt;Node3 -->
<g id="edge4_Node000004_Node000003" class="edge">
<title>Node4&#45;&gt;Node3</title>
<g id="a_edge4_Node000004_Node000003"><a xlink:title=" ">
<path fill="none" stroke="#63b8ff" d="M202.99,-49.42C188.29,-39.81 169.28,-27.37 156.75,-19.17"/>
<polygon fill="#63b8ff" stroke="#63b8ff" points="201.2,-52.44 211.49,-54.98 205.03,-46.58 201.2,-52.44"/>
</a>
</g>
</g>
<!-- Node4&#45;&gt;Node5 -->
<g id="edge5_Node000004_Node000005" class="edge">
<title>Node4&#45;&gt;Node5</title>
<g id="a_edge5_Node000004_Node000005"><a xlink:title=" ">
<path fill="none" stroke="#63b8ff" d="M244.09,-48.88C256.87,-39.34 273.11,-27.21 283.89,-19.17"/>
<polygon fill="#63b8ff" stroke="#63b8ff" points="241.83,-46.2 235.91,-54.98 246.01,-51.81 241.83,-46.2"/>
</a>
</g>
</g>
<!-- Node7&#45;&gt;Node8 -->
<g id="edge9_Node000007_Node000008" class="edge">
<title>Node7&#45;&gt;Node8</title>
<g id="a_edge9_Node000007_Node000008"><a xlink:title=" ">
<path fill="none" stroke="#63b8ff" d="M608.56,-53.52C680.25,-43.3 790.16,-27.64 855.73,-18.3"/>
<polygon fill="#63b8ff" stroke="#63b8ff" points="607.67,-50.11 598.27,-54.98 608.66,-57.04 607.67,-50.11"/>
</a>
</g>
</g>
<!-- Node9&#45;&gt;Node8 -->
<g id="edge11_Node000009_Node000008" class="edge">
<title>Node9&#45;&gt;Node8</title>
<g id="a_edge11_Node000009_Node000008"><a xlink:title=" ">
<path fill="none" stroke="#63b8ff" d="M751.93,-52.31C789.54,-42.39 843.67,-28.12 877.95,-19.08"/>
<polygon fill="#63b8ff" stroke="#63b8ff" points="750.57,-49.05 741.79,-54.98 752.36,-55.82 750.57,-49.05"/>
</a>
</g>
</g>
<!-- Node10&#45;&gt;Node8 -->
<g id="edge13_Node000010_Node000008" class="edge">
<title>Node10&#45;&gt;Node8</title>
<g id="a_edge13_Node000010_Node000008"><a xlink:title=" ">
<path fill="none" stroke="#63b8ff" d="M860.54,-48.88C872.96,-39.34 888.74,-27.21 899.21,-19.17"/>
<polygon fill="#63b8ff" stroke="#63b8ff" points="858.38,-46.12 852.59,-54.98 862.65,-51.67 858.38,-46.12"/>
</a>
</g>
</g>
<!-- Node11&#45;&gt;Node8 -->
<g id="edge15_Node000011_Node000008" class="edge">
<title>Node11&#45;&gt;Node8</title>
<g id="a_edge15_Node000011_Node000008"><a xlink:title=" ">
<path fill="none" stroke="#63b8ff" d="M960.46,-48.88C948.04,-39.34 932.26,-27.21 921.79,-19.17"/>
<polygon fill="#63b8ff" stroke="#63b8ff" points="958.35,-51.67 968.41,-54.98 962.62,-46.12 958.35,-51.67"/>
</a>
</g>
</g>
<!-- Node12&#45;&gt;Node8 -->
<g id="edge17_Node000012_Node000008" class="edge">
<title>Node12&#45;&gt;Node8</title>
<g id="a_edge17_Node000012_Node000008"><a xlink:title=" ">
<path fill="none" stroke="#63b8ff" d="M1067.49,-52.31C1030.25,-42.39 976.66,-28.12 942.72,-19.08"/>
<polygon fill="#63b8ff" stroke="#63b8ff" points="1066.96,-55.79 1077.53,-54.98 1068.76,-49.03 1066.96,-55.79"/>
</a>
</g>
</g>
<!-- Node13&#45;&gt;Node8 -->
<g id="edge20_Node000013_Node000008" class="edge">
<title>Node13&#45;&gt;Node8</title>
<g id="a_edge20_Node000013_Node000008"><a xlink:title=" ">
<path fill="none" stroke="#63b8ff" d="M1169.78,-53.31C1109.5,-43.36 1018.81,-28.38 962.21,-19.04"/>
<polygon fill="#63b8ff" stroke="#63b8ff" points="1169.49,-56.81 1179.93,-54.98 1170.63,-49.9 1169.49,-56.81"/>
</a>
</g>
</g>
<!-- Node14&#45;&gt;Node8 -->
<g id="edge22_Node000014_Node000008" class="edge">
<title>Node14&#45;&gt;Node8</title>
<g id="a_edge22_Node000014_Node000008"><a xlink:title=" ">
<path fill="none" stroke="#63b8ff" d="M1292.05,-54.84C1169.48,-39 1037.49,-24.25 965.1,-16.37"/>
<polygon fill="#63b8ff" stroke="#63b8ff" points="1291.61,-58.31 1301.98,-56.13 1292.52,-51.37 1291.61,-58.31"/>
</a>
</g>
</g>
</g>
</svg>

<g id="navigator" transform="translate(0 0)" fill="#404254">
  <rect fill="#f2f5e9" fill-opacity="0.5" stroke="#606060" stroke-width=".5" x="0" y="0" width="60" height="60"/>
  <use id="zoomplus" xlink:href="#zoomPlus" x="17" y="9" onmousedown="handleZoom(evt,'in')"/>
  <use id="zoomminus" xlink:href="#zoomMin" x="42" y="9" onmousedown="handleZoom(evt,'out')"/>
  <use id="reset" xlink:href="#resetDef" x="30" y="36" onmousedown="handleReset()"/>
   <use id="arrowup" xlink:href="#arrowUp" x="0" y="0" onmousedown="handlePan(0,-1)"/>
  <use id="arrowright" xlink:href="#arrowRight" x="0" y="0" onmousedown="handlePan(1,0)"/>
  <use id="arrowdown" xlink:href="#arrowDown" x="0" y="0" onmousedown="handlePan(0,1)"/>
  <use id="arrowleft" xlink:href="#arrowLeft" x="0" y="0" onmousedown="handlePan(-1,0)"/>
</g>
<svg viewBox="0 0 15 15" width="100%" height="30px" preserveAspectRatio="xMaxYMin meet">
 <g id="arrow_out" transform="scale(0.3 0.3)">
  <a xlink:href="Utils_8h__dep__incl_org.svg" target="_base">
   <rect id="button" ry="5" rx="5" y="6" x="6" height="38" width="38"
        fill="#f2f5e9" fill-opacity="0.5" stroke="#606060" stroke-width="1.0"/>
   <path id="arrow"
     d="M 11.500037,31.436501 C 11.940474,20.09759 22.043105,11.32322 32.158766,21.979434 L 37.068811,17.246167 C 37.068811,17.246167 37.088388,32 37.088388,32 L 22.160133,31.978069 C 22.160133,31.978069 26.997745,27.140456 26.997745,27.140456 C 18.528582,18.264221 13.291696,25.230495 11.500037,31.436501 z"
     style="fill:#404040;"/>
  </a>
 </g>
</svg>

<style type='text/css'>
<![CDATA[
[data-mouse-over-selected='false'] { opacity: 0.7; }
[data-mouse-over-selected='true']  { opacity: 1.0; }
]]>
</style>
<script type="application/ecmascript"><![CDATA[
document.addEventListener('DOMContentLoaded', (event) => {
  highlightEdges();
  highlightAdjacentNodes();
});
]]></script>
</svg>
